<svg width="119" height="40" viewBox="0 0 119 40" fill="none" xmlns="http://www.w3.org/2000/svg">
<ellipse cx="12.3879" cy="12.3599" rx="10.6254" ry="10.6015" fill="#EB5E37"/>
<path d="M109.267 39.9659C107.992 39.9659 106.865 39.7388 105.886 39.2844C104.907 38.8074 104.144 38.16 103.598 37.3422C103.052 36.5245 102.778 35.5818 102.778 34.5141C102.778 32.8104 103.416 31.4929 104.691 30.5615C105.989 29.6075 107.764 29.1304 110.018 29.1304C111.567 29.1304 113.024 29.369 114.39 29.846V28.5512C114.39 27.529 114.071 26.7566 113.433 26.2342C112.796 25.7117 111.863 25.4505 110.633 25.4505C109.882 25.4505 109.074 25.5754 108.208 25.8253C107.343 26.0524 106.341 26.4159 105.203 26.9156L103.496 23.4742C104.907 22.8381 106.25 22.3611 107.525 22.0431C108.823 21.7251 110.121 21.566 111.419 21.566C113.809 21.566 115.665 22.1453 116.985 23.3038C118.328 24.4396 119 26.0524 119 28.1423V39.6593H114.39V38.3985C113.661 38.9437 112.876 39.3412 112.033 39.5911C111.191 39.841 110.269 39.9659 109.267 39.9659ZM107.218 34.4119C107.218 35.0934 107.514 35.6385 108.106 36.0474C108.698 36.4336 109.483 36.6267 110.462 36.6267C111.236 36.6267 111.954 36.5358 112.614 36.3541C113.274 36.1496 113.866 35.8543 114.39 35.4682V32.8786C113.821 32.6514 113.229 32.481 112.614 32.3675C111.999 32.2539 111.339 32.1971 110.633 32.1971C109.563 32.1971 108.721 32.4015 108.106 32.8104C107.514 33.1966 107.218 33.7304 107.218 34.4119Z" fill="#27774E"/>
<path d="M90.2839 39.8978C88.5992 39.8978 87.0738 39.4889 85.7077 38.6712C84.3417 37.8534 83.2489 36.763 82.4292 35.4001C81.6324 34.0144 81.2339 32.4697 81.2339 30.766C81.2339 29.0624 81.6324 27.529 82.4292 26.1661C83.2489 24.7804 84.3531 23.69 85.7419 22.895C87.1307 22.0772 88.6902 21.6683 90.4205 21.6683C91.3085 21.6683 92.1622 21.7933 92.9819 22.0431C93.8015 22.2703 94.5642 22.611 95.27 23.0654V15.8076L99.9486 15.0239V39.6593H95.3383V38.1941C93.8812 39.3299 92.1964 39.8978 90.2839 39.8978ZM91.0353 35.9112C91.9004 35.9112 92.6859 35.7749 93.3917 35.5023C94.1202 35.207 94.7463 34.7754 95.27 34.2075V27.2905C94.7463 26.768 94.1202 26.3592 93.3917 26.0639C92.6631 25.7685 91.8776 25.6209 91.0353 25.6209C90.0563 25.6209 89.1683 25.8481 88.3715 26.3024C87.5974 26.734 86.9827 27.3473 86.5273 28.1424C86.072 28.9147 85.8443 29.7893 85.8443 30.766C85.8443 31.7428 86.072 32.6174 86.5273 33.3897C86.9827 34.1621 87.5974 34.7754 88.3715 35.2297C89.1683 35.684 90.0563 35.9112 91.0353 35.9112Z" fill="#27774E"/>
<path d="M61.8098 39.6593V21.9068H66.4885V23.372C67.8318 22.168 69.4938 21.566 71.4745 21.566C72.8633 21.566 74.0814 21.8727 75.1287 22.486C76.1987 23.0766 77.0297 23.9058 77.6217 24.9734C78.2136 26.0184 78.5096 27.245 78.5096 28.6534V39.6593H73.8309V29.3349C73.8309 28.1764 73.5008 27.2677 72.8406 26.609C72.1803 25.9275 71.281 25.5868 70.1426 25.5868C69.3458 25.5868 68.64 25.7458 68.0253 26.0638C67.4106 26.3591 66.8983 26.7907 66.4885 27.3586V39.6593H61.8098Z" fill="#27774E"/>
<path d="M50.508 40C48.7322 40 47.1157 39.5911 45.6586 38.7733C44.2243 37.9555 43.0859 36.8538 42.2435 35.4682C41.4011 34.0825 40.9799 32.5264 40.9799 30.8C40.9799 29.0736 41.3783 27.5176 42.1752 26.1319C42.9948 24.7463 44.099 23.6445 45.4878 22.8268C46.8766 22.009 48.4248 21.6001 50.1324 21.6001C51.8399 21.6001 53.3539 22.0203 54.6744 22.8608C55.9949 23.7013 57.0308 24.8371 57.7822 26.2682C58.5562 27.6993 58.9433 29.3235 58.9433 31.1408V32.3674H45.761C45.9659 33.0716 46.2961 33.7077 46.7514 34.2756C47.2295 34.8435 47.8101 35.2864 48.4931 35.6045C49.1989 35.9225 49.9502 36.0815 50.7471 36.0815C51.5439 36.0815 52.2725 35.9565 52.9327 35.7067C53.6157 35.4568 54.1963 35.1047 54.6744 34.6504L57.748 37.4444C56.6552 38.3304 55.5282 38.9778 54.3671 39.3867C53.2287 39.7955 51.9424 40 50.508 40ZM45.6927 29.0282H54.3329C54.1735 28.324 53.8776 27.7107 53.445 27.1882C53.0352 26.643 52.5343 26.2228 51.9424 25.9275C51.3732 25.6095 50.7357 25.4504 50.0299 25.4504C49.3014 25.4504 48.6411 25.5981 48.0492 25.8934C47.4572 26.1887 46.9563 26.609 46.5465 27.1541C46.1595 27.6766 45.8749 28.3013 45.6927 29.0282Z" fill="#27774E"/>
<path d="M31.5169 40C29.8777 40 28.3637 39.7955 26.9749 39.3867C25.586 38.955 24.3794 38.3417 23.3549 37.5467L25.6771 34.4459C26.7016 35.1274 27.6806 35.6385 28.6141 35.9793C29.5703 36.32 30.5152 36.4904 31.4486 36.4904C32.4959 36.4904 33.3269 36.32 33.9416 35.9793C34.5791 35.6158 34.8979 35.1501 34.8979 34.5822C34.8979 34.1279 34.7157 33.7645 34.3514 33.4919C34.0099 33.2193 33.4521 33.0262 32.678 32.9126L29.263 32.4015C27.4871 32.1289 26.1438 31.561 25.2332 30.6978C24.3225 29.8119 23.8671 28.6534 23.8671 27.2223C23.8671 26.0638 24.1631 25.0756 24.755 24.2579C25.3698 23.4174 26.2235 22.77 27.3164 22.3157C28.432 21.8386 29.7525 21.6001 31.2779 21.6001C32.5756 21.6001 33.8392 21.7818 35.0686 22.1453C36.3208 22.5087 37.4933 23.0653 38.5862 23.8149L36.3322 26.8475C35.3532 26.2341 34.4197 25.7912 33.5318 25.5186C32.6439 25.246 31.7446 25.1097 30.8339 25.1097C29.9915 25.1097 29.3085 25.2687 28.7848 25.5867C28.284 25.9048 28.0335 26.325 28.0335 26.8475C28.0335 27.3245 28.2157 27.6993 28.5799 27.9719C28.9442 28.2445 29.5703 28.4376 30.4582 28.5512L33.8392 29.0623C35.615 29.3121 36.9697 29.88 37.9031 30.766C38.8366 31.6292 39.3033 32.7536 39.3033 34.1393C39.3033 35.2751 38.9618 36.2859 38.2788 37.1718C37.5958 38.0351 36.6737 38.7279 35.5126 39.2504C34.3514 39.7501 33.0196 40 31.5169 40Z" fill="#27774E"/>
</svg>
