<svg width="84" height="58" viewBox="0 0 84 58" fill="none" xmlns="http://www.w3.org/2000/svg">
<rect x="0.5" y="0.5" width="83" height="57" rx="3.5" fill="white" stroke="#F3F3F3"/>
<path fill-rule="evenodd" clip-rule="evenodd" d="M30.7743 44.7913V46.9327V49.0742H29.8369V48.5542C29.5395 48.9398 29.0884 49.1819 28.4751 49.1819C27.2661 49.1819 26.3183 48.2414 26.3183 46.9327C26.3183 45.6251 27.2661 44.6836 28.4751 44.6836C29.0884 44.6836 29.5395 44.9256 29.8369 45.3113V44.7913H30.7743ZM28.5917 45.5615C27.7802 45.5615 27.2836 46.1799 27.2836 46.9327C27.2836 47.6855 27.7802 48.304 28.5917 48.304C29.3671 48.304 29.8906 47.7122 29.8906 46.9327C29.8906 46.1533 29.3671 45.5615 28.5917 45.5615ZM62.4538 46.9327C62.4538 46.1799 62.9504 45.5615 63.7619 45.5615C64.5383 45.5615 65.0607 46.1533 65.0607 46.9327C65.0607 47.7122 64.5383 48.304 63.7619 48.304C62.9504 48.304 62.4538 47.6855 62.4538 46.9327ZM65.9455 43.0713V46.9327V49.0742H65.007V48.5542C64.7097 48.9398 64.2585 49.1819 63.6452 49.1819C62.4362 49.1819 61.4884 48.2414 61.4884 46.9327C61.4884 45.6251 62.4362 44.6836 63.6452 44.6836C64.2585 44.6836 64.7097 44.9256 65.007 45.3113V43.0713H65.9455ZM42.411 45.5174C43.015 45.5174 43.4032 45.8938 43.5023 46.5563H41.265C41.3651 45.9379 41.743 45.5174 42.411 45.5174ZM40.2821 46.9327C40.2821 45.5974 41.1658 44.6836 42.4295 44.6836C43.6375 44.6836 44.4676 45.5974 44.4769 46.9327C44.4769 47.0579 44.4676 47.1748 44.4583 47.2907H41.2567C41.3919 48.0619 41.9422 48.3399 42.5462 48.3399C42.9788 48.3399 43.4393 48.1778 43.8006 47.8917L44.2601 48.5819C43.7366 49.0209 43.1419 49.1819 42.4925 49.1819C41.202 49.1819 40.2821 48.2947 40.2821 46.9327ZM53.7493 46.9327C53.7493 46.1799 54.2459 45.5615 55.0574 45.5615C55.8327 45.5615 56.3562 46.1533 56.3562 46.9327C56.3562 47.7122 55.8327 48.304 55.0574 48.304C54.2459 48.304 53.7493 47.6855 53.7493 46.9327ZM57.24 44.7913V46.9327V49.0742H56.3025V48.5542C56.0041 48.9398 55.554 49.1819 54.9407 49.1819C53.7317 49.1819 52.7839 48.2414 52.7839 46.9327C52.7839 45.6251 53.7317 44.6836 54.9407 44.6836C55.554 44.6836 56.0041 44.9256 56.3025 45.3113V44.7913H57.24ZM48.4548 46.9327C48.4548 48.2322 49.3655 49.1819 50.7551 49.1819C51.4045 49.1819 51.8371 49.0383 52.3058 48.6711L51.8557 47.9183C51.5036 48.1696 51.134 48.304 50.7272 48.304C49.9787 48.2947 49.4284 47.7573 49.4284 46.9327C49.4284 46.1082 49.9787 45.5707 50.7272 45.5615C51.134 45.5615 51.5036 45.6959 51.8557 45.9471L52.3058 45.1943C51.8371 44.8272 51.4045 44.6836 50.7551 44.6836C49.3655 44.6836 48.4548 45.6333 48.4548 46.9327ZM59.4048 45.3113C59.6485 44.9349 60.0005 44.6836 60.5415 44.6836C60.7315 44.6836 61.002 44.7195 61.2095 44.8005L60.9204 45.6784C60.7222 45.5974 60.524 45.5707 60.334 45.5707C59.7207 45.5707 59.4141 45.9646 59.4141 46.6733V49.0742H58.4756V44.7913H59.4048V45.3113ZM35.4109 45.1318C34.9598 44.8364 34.3382 44.6836 33.6527 44.6836C32.5604 44.6836 31.8573 45.2036 31.8573 46.0548C31.8573 46.7533 32.3807 47.184 33.345 47.3184L33.788 47.3809C34.3021 47.4527 34.5447 47.5871 34.5447 47.8291C34.5447 48.1604 34.202 48.3491 33.5618 48.3491C32.9124 48.3491 32.4437 48.1429 32.1278 47.9009L31.6859 48.626C32.2001 49.0024 32.8495 49.1819 33.5526 49.1819C34.7977 49.1819 35.5194 48.5993 35.5194 47.784C35.5194 47.0312 34.9515 46.6374 34.013 46.503L33.5711 46.4394C33.1654 46.3861 32.8402 46.3061 32.8402 46.0189C32.8402 45.7051 33.1468 45.5174 33.661 45.5174C34.2113 45.5174 34.744 45.7236 35.0052 45.8846L35.4109 45.1318ZM46.3714 45.3113C46.614 44.9349 46.9661 44.6836 47.5071 44.6836C47.6971 44.6836 47.9676 44.7195 48.1751 44.8005L47.886 45.6784C47.6878 45.5974 47.4895 45.5707 47.2996 45.5707C46.6863 45.5707 46.3797 45.9646 46.3797 46.6733V49.0742H45.4422V44.7913H46.3714V45.3113ZM39.5066 44.7913H37.9734V43.4918H37.0256V44.7913H36.1511V45.6425H37.0256V47.5963C37.0256 48.5901 37.4138 49.1819 38.5226 49.1819C38.9294 49.1819 39.3982 49.0568 39.6955 48.8506L39.425 48.0527C39.1452 48.2137 38.8386 48.2947 38.5949 48.2947C38.1262 48.2947 37.9734 48.0076 37.9734 47.5778V45.6425H39.5066V44.7913ZM25.4892 46.3861V49.0742H24.5414V46.6907C24.5414 45.9646 24.2348 45.5615 23.5947 45.5615C22.9721 45.5615 22.5395 45.9564 22.5395 46.6999V49.0742H21.5918V46.6907C21.5918 45.9646 21.2769 45.5615 20.6543 45.5615C20.0132 45.5615 19.5981 45.9564 19.5981 46.6999V49.0742H18.6514V44.7913H19.5899V45.3195C19.9419 44.8179 20.3921 44.6836 20.8525 44.6836C21.5112 44.6836 21.98 44.9708 22.2773 45.4456C22.6748 44.8446 23.2426 44.6744 23.7929 44.6836C24.8398 44.6928 25.4892 45.3738 25.4892 46.3861Z" fill="#231F20"/>
<path d="M49.309 37.5138H35.1006V12.1486H49.309V37.5138Z" fill="#FF5F00"/>
<path d="M36.0018 24.8317C36.0018 19.6862 38.427 15.1028 42.2037 12.1491C39.4419 9.98915 35.9564 8.69997 32.1683 8.69997C23.2006 8.69997 15.9312 15.9223 15.9312 24.8317C15.9312 33.7411 23.2006 40.9634 32.1683 40.9634C35.9564 40.9634 39.4419 39.6742 42.2037 37.5143C38.427 34.5605 36.0018 29.9771 36.0018 24.8317Z" fill="#EB001B"/>
<path d="M68.4772 24.8317C68.4772 33.7411 61.2077 40.9634 52.24 40.9634C48.4519 40.9634 44.9664 39.6742 42.2036 37.5143C45.9813 34.5605 48.4065 29.9771 48.4065 24.8317C48.4065 19.6862 45.9813 15.1028 42.2036 12.1491C44.9664 9.98915 48.4519 8.69997 52.24 8.69997C61.2077 8.69997 68.4772 15.9223 68.4772 24.8317Z" fill="#F79E1B"/>
</svg>
